<svg id="Layer_1" data-name="Layer 1" xmlns="http://www.w3.org/2000/svg" viewBox="0 0 389.82 129.69"><defs><style>.cls-1{fill:#15a877;}</style></defs><title>mag_top</title><path class="cls-1" d="M443,290.08l6.12-17L387.5,310.83q-2.84,2-5-.87l-28-38.66L312.15,386.18q-1.31,3.93-4.8,2.18-3.06-.87-2.18-4.59l44.77-121.43q1.09-3.28,4.81-2.18a4,4,0,0,1,1.75,1.31l29.92,41.28,67.92-41.5q2.84-1.74,5,1.31a3.28,3.28,0,0,1,.22,3.06l-10,28.17L414.8,386.18q-1.31,3.5-4.8,2.18-3.5-1.09-2.18-4.59l30.79-82.34" transform="translate(-304.97 -259.21)"/><path class="cls-1" d="M526.12,383.28q-1.31,3.72,2.18,4.81,3.28,1.31,4.59-2.18l45.65-121.65a3.08,3.08,0,0,0,.22-1.31q0-3.71-3.71-3.71h-66a3.6,3.6,0,0,0-3.93,2.4l-18.56,50.45q-1.31,3.5,2.18,4.8t4.81-2.18l17.69-48H569.8L566.3,276h0l-2.83,7.43L546,330.21l-63.56.22q-2.84,0-3.5,2.4L460.16,383.5c-0.58,2.48.14,4,2.18,4.59q3.49,1.75,4.8-2.18l17.91-48.27h58.1Z" transform="translate(-304.97 -259.21)"/><path class="cls-1" d="M691.07,259.23H621.4a3,3,0,0,0-3.28,2.4L572.92,383.5c-0.58,2.48.14,4,2.18,4.59a3.72,3.72,0,0,0,1.53.22H641.5a3.64,3.64,0,0,0,3.49-2.4l25.55-69q1.09-3.28-2.18-4.59a4.92,4.92,0,0,0-1.53-.22l-46.3-.22q-3.72,0-3.71,3.71t3.71,3.71h41.06l-22.06,62-57.88-.22L624,266.65h67.05q3.71,0,3.71-3.71T691.07,259.23Z" transform="translate(-304.97 -259.21)"/></svg>