<svg id="Layer_1" data-name="Layer 1" xmlns="http://www.w3.org/2000/svg" viewBox="0 0 365.08 144.39"><defs><style>.cls-1{opacity:0.1;}</style></defs><title>mag_shade</title><g id="M"><g id="M_shade" data-name="M shade" class="cls-1"><path d="M368.51,272.92L326.36,385.18q-1.1,2.84-4.81,2.18-3.5-1.09-2.18-4.81l43.9-116.85Z" transform="translate(-319.01 -243.1)"/><path d="M397.25,278.31L375.62,249q-2.41-2.62.66-5.24a3.73,3.73,0,0,1,5.24.87l22.06,29.92Z" transform="translate(-319.01 -243.1)"/><path d="M438.89,283.63l-47.83,29.7q-3.28,2-5-1.09-2.19-3.28,1.09-5.24l56.13-34.73" transform="translate(-319.01 -243.1)"/><path d="M469.47,262.41q1.09-3.71,4.8-2.18,3.28,1.31,2.18,4.59L433.21,384.5q-1.09,2.84-4.59,2.18-3.93-1.09-2.18-4.59Z" transform="translate(-319.01 -243.1)"/></g></g><g id="A"><g id="A_shade" data-name="A shade" class="cls-1"><path d="M506.68,312.58l16.82-46.74h40l2.83-7.43H521.1q-2.84,0-3.5,2.4l-18.78,52Z" transform="translate(-319.01 -243.1)"/><path d="M588.8,258.2q-3.72-1.52-4.8,2.18L539.66,380.07h-16.6q-3.72,0-3.71,3.71t3.71,3.71h19a3.79,3.79,0,0,0,3.71-2.4L591,262.78Q592.08,259.51,588.8,258.2Z" transform="translate(-319.01 -243.1)"/><path d="M496.2,320l-22.5,62.46q-1.31,3.72,2.18,4.8a4.05,4.05,0,0,0,4.8-2.18L504.06,320H496.2Z" transform="translate(-319.01 -243.1)"/></g></g><g id="G"><g id="G_shade" data-name="G shade" class="cls-1"><path d="M680.37,258.42H633.85q-3.71,0-3.71,3.71t3.71,3.71h46.52q3.71,0,3.71-3.71T680.37,258.42Z" transform="translate(-319.01 -243.1)"/><path d="M656.92,314.75H613.76q-3.06-.21-3.71,2.4L593,363.51l8.16,0,15.24-41.17H654.2Z" transform="translate(-319.01 -243.1)"/><path d="M680.81,312.8A3.78,3.78,0,0,0,676,315l-24.24,65.08H590q-3.72,0-3.71,3.71t3.71,3.71h64.21a3.4,3.4,0,0,0,3.49-2.4L683,317.6Q684.08,314.33,680.81,312.8Z" transform="translate(-319.01 -243.1)"/></g></g></svg>